<svg width="138" height="21" viewBox="0 0 138 21" fill="none" xmlns="http://www.w3.org/2000/svg">
<path d="M0 0.256393H7.58242C9.00964 0.247544 10.4268 0.495531 11.7662 0.988539C12.9901 1.43991 14.1103 2.13355 15.0598 3.02793C15.965 3.91003 16.6927 4.95734 17.2038 6.11326C17.7167 7.31899 17.9664 8.62034 17.936 9.93029V9.98237C17.9407 11.2902 17.692 12.5865 17.2038 13.7998C16.7114 14.9662 15.9812 16.017 15.0598 16.8852C14.1186 17.7904 12.996 18.4855 11.7662 18.9246C10.4336 19.4423 9.01166 19.6911 7.58242 19.6567H0V0.256393ZM7.58242 15.8392C8.40182 15.8409 9.21522 15.6993 9.98588 15.4209C10.6859 15.1777 11.3147 14.7648 11.8161 14.2191C12.3224 13.6855 12.7294 13.0657 13.0178 12.3889C13.3011 11.637 13.443 10.8393 13.4362 10.0358V9.98327C13.4335 9.18077 13.2919 8.38478 13.0178 7.63055C12.7626 6.92125 12.352 6.27797 11.8161 5.74782C11.3053 5.21331 10.6794 4.80234 9.98588 4.54612C9.21519 4.26785 8.4018 4.1264 7.58242 4.12817H4.28882V15.8415L7.58242 15.8392Z" fill="white"/>
<path d="M21.9092 0.256165H26.1972V19.6565H21.9092V0.256165Z" fill="white"/>
<path d="M40.3678 20.0236C38.9578 20.0324 37.558 19.7843 36.237 19.2915C35.0452 18.813 33.9608 18.1019 33.047 17.1996C32.1184 16.2679 31.3891 15.1569 30.9037 13.9343C30.4182 12.7116 30.1868 11.403 30.2234 10.088V10.0359C30.2105 8.70531 30.4779 7.38686 31.0081 6.16637C31.5114 4.97532 32.2393 3.89231 33.1521 2.97646C34.0586 2.05261 35.1438 1.32314 36.3415 0.832509C37.6353 0.302106 39.0221 0.0354668 40.4203 0.0482605C41.2075 0.0410482 41.9942 0.0935826 42.7734 0.205387C43.4506 0.317136 44.1158 0.492054 44.7603 0.727893C45.3642 0.943092 45.9428 1.22353 46.4859 1.56422C47.0332 1.9134 47.5573 2.29773 48.0548 2.71477L45.3879 5.95676C45.022 5.6452 44.6557 5.3817 44.2899 5.12043C43.924 4.88043 43.5392 4.67057 43.1393 4.49288C42.7208 4.31599 42.2816 4.19291 41.8321 4.12657C41.3337 4.0199 40.8253 3.96721 40.3157 3.96945C39.558 3.96371 38.8084 4.12446 38.1197 4.44034C37.4542 4.76729 36.8521 5.20991 36.3415 5.74755C35.8223 6.31059 35.4145 6.96696 35.1398 7.68189C34.8657 8.43628 34.7242 9.2324 34.7215 10.035V10.0871C34.7197 10.9242 34.8612 11.7555 35.1398 12.5449C35.4058 13.2671 35.8167 13.9273 36.3473 14.4849C36.8779 15.0424 37.5169 15.4855 38.2251 15.7869C38.9691 16.1032 39.77 16.2634 40.5783 16.2578C42.0082 16.3091 43.4177 15.9064 44.6045 15.1072V12.3357H40.3166V8.67488H48.7353V17.095C47.6528 17.9815 46.457 18.72 45.1796 19.291C43.6185 19.7621 41.9983 20.0088 40.3678 20.0236Z" fill="white"/>
<path d="M52.9197 0.256165H57.2077V19.6565H52.9197V0.256165Z" fill="white"/>
<path d="M62.0688 0.256165H76.66V4.07363H66.2526V7.99481H75.4036V11.8123H66.2526V15.8911H76.7628V19.7081H62.0168V0.256165H62.0688Z" fill="white"/>
<path d="M89.9394 20.0236C88.5294 20.0324 87.1296 19.7843 85.8085 19.2914C84.6168 18.8131 83.5323 18.1019 82.6186 17.1995C81.69 16.2678 80.9608 15.1568 80.4754 13.9342C79.9899 12.7116 79.7584 11.403 79.795 10.088V10.0359C79.7819 8.70534 80.0492 7.38689 80.5792 6.16637C81.0827 4.97539 81.8106 3.8924 82.7232 2.97646C83.6299 2.05262 84.7153 1.32315 85.9131 0.832508C87.2069 0.302105 88.5936 0.0354656 89.9919 0.0482593C90.7791 0.0410539 91.5658 0.0935882 92.3451 0.205386C93.0222 0.317142 93.6874 0.49206 94.3319 0.727892C94.9358 0.943048 95.5145 1.22349 96.0575 1.56422C96.6048 1.91338 97.1289 2.29771 97.6264 2.71477L94.9595 5.95676C94.5936 5.6452 94.2273 5.3817 93.8614 5.12043C93.4955 4.88051 93.1107 4.67065 92.7109 4.49288C92.2924 4.31603 91.8531 4.19295 91.4037 4.12657C90.9053 4.01993 90.3969 3.96724 89.8873 3.96945C89.1295 3.96371 88.3796 4.12445 87.6908 4.44034C87.0255 4.76734 86.4236 5.20996 85.9131 5.74755C85.3939 6.31061 84.9862 6.96698 84.7114 7.68189C84.4373 8.43629 84.2958 9.2324 84.293 10.035V10.0871C84.2914 10.9242 84.4329 11.7555 84.7114 12.5449C84.9774 13.2671 85.3883 13.9273 85.9189 14.4848C86.4495 15.0424 87.0885 15.4855 87.7967 15.7869C88.5407 16.1031 89.3416 16.2634 90.1499 16.2578C91.5798 16.3092 92.9893 15.9064 94.1761 15.1072V12.3357H89.8882V8.67488H98.3061V17.095C97.2234 17.9814 96.0277 18.7199 94.7503 19.291C93.1895 19.762 91.5696 20.0086 89.9394 20.0236Z" fill="white"/>
<path d="M111.695 20.0236C110.285 20.0325 108.885 19.7843 107.564 19.2914C106.362 18.8325 105.274 18.1189 104.374 17.1995C103.445 16.268 102.716 15.157 102.23 13.9344C101.745 12.7117 101.513 11.403 101.55 10.088V10.0359C101.537 8.70531 101.805 7.38686 102.335 6.16637C102.838 4.97536 103.566 3.89237 104.479 2.97646C105.385 2.05268 106.471 1.32322 107.668 0.83251C108.962 0.302107 110.349 0.0354679 111.747 0.0482617C112.534 0.0410425 113.321 0.0935769 114.1 0.205388C114.777 0.317138 115.443 0.492056 116.087 0.727894C116.691 0.943086 117.27 1.22353 117.813 1.56422C118.36 1.9133 118.885 2.29763 119.382 2.71477L116.715 5.95676C116.349 5.6452 115.983 5.3817 115.617 5.12043C115.251 4.88051 114.867 4.67065 114.467 4.49288C114.048 4.31598 113.609 4.1929 113.16 4.12657C112.661 4.01987 112.153 3.96718 111.643 3.96945C110.885 3.96368 110.136 4.12442 109.447 4.44034C108.782 4.76737 108.18 5.20999 107.669 5.74755C107.15 6.31059 106.742 6.96696 106.467 7.68189C106.168 8.42938 106.026 9.23029 106.049 10.035V10.0871C106.047 10.9242 106.189 11.7555 106.467 12.5449C106.722 13.2698 107.132 13.9301 107.669 14.4797C108.208 15.031 108.847 15.4747 109.552 15.7869C110.296 16.1032 111.097 16.2634 111.905 16.2578C113.335 16.3092 114.744 15.9064 115.931 15.1072V12.3357H111.643V8.67488H120.061V17.095C118.979 17.9814 117.783 18.7199 116.505 19.291C114.945 19.762 113.325 20.0086 111.695 20.0236Z" fill="white"/>
<path d="M130.989 19.9706C129.507 19.969 128.038 19.7035 126.649 19.1863C125.22 18.6582 123.906 17.8592 122.78 16.8332L125.289 13.8003C126.113 14.4967 127.028 15.0773 128.009 15.5259C128.98 15.9542 130.033 16.1684 131.094 16.154C131.805 16.1979 132.514 16.0343 133.133 15.683C133.362 15.5383 133.549 15.3372 133.677 15.0992C133.805 14.8611 133.87 14.5941 133.865 14.3238V14.2712C133.869 14.0184 133.815 13.7681 133.708 13.5391C133.573 13.2985 133.373 13.0996 133.133 12.964C132.759 12.7212 132.355 12.5279 131.931 12.389C131.282 12.155 130.618 11.9629 129.944 11.8139C128.95 11.5519 128.061 11.2904 127.277 11.0293C126.555 10.7491 125.87 10.3802 125.238 9.93124C124.678 9.504 124.23 8.9479 123.931 8.31023C123.594 7.55492 123.433 6.73323 123.46 5.9068V5.85428C123.449 5.02923 123.61 4.21091 123.931 3.45082C124.245 2.73496 124.73 2.10671 125.342 1.62064C125.969 1.07976 126.698 0.671003 127.486 0.418908C128.366 0.140548 129.283 -0.00057008 130.205 0.000528091C131.539 -0.0120494 132.864 0.200125 134.127 0.628111C135.319 1.05007 136.433 1.66884 137.421 2.45873L135.225 5.64864C134.41 5.10932 133.553 4.63703 132.662 4.2364C131.871 3.8885 131.016 3.71035 130.152 3.71343C129.491 3.66614 128.832 3.83091 128.27 4.18386C128.077 4.31878 127.918 4.49852 127.809 4.70775C127.7 4.91699 127.643 5.14954 127.643 5.38559V5.43813C127.639 5.7247 127.693 6.00909 127.8 6.27486C127.952 6.53372 128.168 6.74965 128.427 6.90245C128.833 7.1442 129.274 7.32068 129.734 7.42542C130.257 7.58253 130.989 7.79127 131.826 8.00046C132.718 8.23333 133.592 8.53084 134.44 8.89063C135.139 9.17568 135.791 9.56348 136.376 10.0412C136.88 10.476 137.289 11.0099 137.577 11.6096C137.866 12.3051 138.009 13.0527 137.996 13.8057V13.8582C138.029 14.702 137.867 15.542 137.522 16.3129C137.178 17.0838 136.66 17.7648 136.009 18.3028C135.348 18.8388 134.582 19.2306 133.76 19.4529C132.887 19.8291 131.94 20.0059 130.989 19.9706Z" fill="white"/>
</svg>
