<svg width="86" height="86" viewBox="0 0 86 86" fill="none" xmlns="http://www.w3.org/2000/svg">
<path d="M71.6667 64.5C75.6083 64.5 78.7975 61.275 78.7975 57.3333L78.8333 21.5C78.8333 17.5225 75.6083 14.3333 71.6667 14.3333H14.3333C10.3558 14.3333 7.16667 17.5225 7.16667 21.5V57.3333C7.16667 61.275 10.3558 64.5 14.3333 64.5H0V71.6667H86V64.5H71.6667ZM14.3333 57.3333V21.5H71.6667V57.3333V57.3692L14.3333 57.3333ZM32.5965 35.6653C32.5965 31.9852 35.5922 28.9859 39.2758 28.9859C42.9559 28.9859 45.9552 31.9852 45.9552 35.6653C45.9552 39.3454 42.9559 42.3446 39.2758 42.3446C35.5922 42.3446 32.5965 39.3454 32.5965 35.6653ZM57.7945 50.8443L48.9007 41.9504C50.0868 40.1409 50.7891 37.9837 50.7891 35.6653C50.7891 29.3156 45.6255 24.152 39.2758 24.152C32.9262 24.152 27.759 29.3156 27.759 35.6653C27.759 42.0149 32.9262 47.1821 39.2758 47.1821C41.5548 47.1821 43.6654 46.4941 45.4535 45.351L54.3724 54.2664L57.7945 50.8443Z" fill="#85B0F2"/>
</svg>
